<svg width="14" height="14" viewBox="0 0 14 14" fill="none" xmlns="http://www.w3.org/2000/svg">
<g clip-path="url(#clip0_517_699)">
<path d="M10.7188 0H3.28125C1.46907 0 0 1.46907 0 3.28125V10.7188C0 12.5309 1.46907 14 3.28125 14H10.7188C12.5309 14 14 12.5309 14 10.7188V3.28125C14 1.46907 12.5309 0 10.7188 0Z" fill="#F0DB4F"/>
<path d="M3.68111 11.6994L4.7525 11.051C4.95918 11.4175 5.1472 11.7276 5.5982 11.7276C6.0305 11.7276 6.30307 11.5585 6.30307 10.9007V6.42737H7.61874V10.9193C7.61874 12.2819 6.81997 12.9022 5.65458 12.9022C4.60214 12.9022 3.9912 12.3571 3.68109 11.6993" fill="#323330"/>
<path d="M8.33331 11.5585L9.40453 10.9383C9.68655 11.3988 10.0531 11.7371 10.7014 11.7371C11.2466 11.7371 11.5942 11.4645 11.5942 11.0886C11.5942 10.6375 11.2371 10.4777 10.6357 10.2147L10.3068 10.0737C9.35761 9.66963 8.72794 9.16213 8.72794 8.0908C8.72794 7.10402 9.47978 6.35217 10.6545 6.35217C11.4909 6.35217 12.0924 6.64355 12.5246 7.40474L11.5003 8.06258C11.2747 7.65849 11.0304 7.49875 10.6545 7.49875C10.2692 7.49875 10.0249 7.74309 10.0249 8.06258C10.0249 8.45726 10.2692 8.61706 10.833 8.86145L11.1619 9.00238C12.2802 9.48172 12.9099 9.9703 12.9099 11.0698C12.9099 12.254 11.9795 12.9024 10.7297 12.9024C9.508 12.9024 8.71859 12.3197 8.33331 11.5585Z" fill="#323330"/>
</g>
<defs>
<clipPath id="clip0_517_699">
<rect width="14" height="14" fill="white"/>
</clipPath>
</defs>
</svg>
